<?xml version="1.0" encoding="UTF-8"?><svg xmlns="http://www.w3.org/2000/svg" width="276" height="276" viewBox="0 0 276 276"><g id="Lower_rwy"><rect x="11.65" y="57.09" width="246.13" height="6.58" style="fill:#353535;"/><rect x="257.78" y="57.09" width="6.57" height="6.58"/><line x1="256.41" y1="63.25" x2="250.08" y2="63.25" style="fill:none; stroke:#fff; stroke-miterlimit:10; stroke-width:.3px;"/><line x1="256.41" y1="62.75" x2="250.08" y2="62.75" style="fill:none; stroke:#fff; stroke-miterlimit:10; stroke-width:.3px;"/><line x1="256.41" y1="62.25" x2="250.08" y2="62.25" style="fill:none; stroke:#fff; stroke-miterlimit:10; stroke-width:.3px;"/><line x1="256.41" y1="61.75" x2="250.08" y2="61.75" style="fill:none; stroke:#fff; stroke-miterlimit:10; stroke-width:.3px;"/><line x1="256.41" y1="61.25" x2="250.08" y2="61.25" style="fill:none; stroke:#fff; stroke-miterlimit:10; stroke-width:.3px;"/><line x1="256.41" y1="60.75" x2="250.08" y2="60.75" style="fill:none; stroke:#fff; stroke-miterlimit:10; stroke-width:.3px;"/><line x1="256.41" y1="60" x2="250.08" y2="60" style="fill:none; stroke:#fff; stroke-miterlimit:10; stroke-width:.3px;"/><line x1="256.41" y1="59.5" x2="250.08" y2="59.5" style="fill:none; stroke:#fff; stroke-miterlimit:10; stroke-width:.3px;"/><line x1="256.41" y1="59" x2="250.08" y2="59" style="fill:none; stroke:#fff; stroke-miterlimit:10; stroke-width:.3px;"/><line x1="256.41" y1="58.5" x2="250.08" y2="58.5" style="fill:none; stroke:#fff; stroke-miterlimit:10; stroke-width:.3px;"/><line x1="256.41" y1="58" x2="250.08" y2="58" style="fill:none; stroke:#fff; stroke-miterlimit:10; stroke-width:.3px;"/><line x1="256.41" y1="57.5" x2="250.08" y2="57.5" style="fill:none; stroke:#fff; stroke-miterlimit:10; stroke-width:.3px;"/><path d="m248.88,61.11h-2.05v.19h-.43v-.58h2.48v.38Z" style="fill:#fff;"/><path d="m247.07,60.27c-.15,0-.29,0-.42-.05-.21-.08-.29-.24-.29-.42,0-.32.25-.5.64-.5.25,0,.48.05.59.25.09-.23.31-.31.6-.31.45,0,.73.23.73.59s-.27.53-.69.53v-.37s.05,0,.07,0c.12,0,.23-.04.23-.15,0-.16-.25-.17-.39-.17-.29,0-.36.07-.36.3h-.42c0-.21-.04-.31-.33-.31-.11,0-.28.02-.28.14,0,.13.22.13.33.13v.34h-.03Z" style="fill:#fff;"/><line x1="244.17" y1="60.38" x2="25.23" y2="60.38" style="fill:none; stroke:#fff; stroke-dasharray:0 0 5.4 3.2; stroke-miterlimit:10; stroke-width:.2px;"/><rect x="208.33" y="61.78" width="6.39" height="1.48" style="fill:#fff;"/><rect x="208.33" y="57.53" width="6.39" height="1.48" style="fill:#fff;"/><line x1="18.75" y1="63.25" x2="12.43" y2="63.25" style="fill:none; stroke:#fff; stroke-miterlimit:10; stroke-width:.3px;"/><line x1="18.75" y1="62.75" x2="12.43" y2="62.75" style="fill:none; stroke:#fff; stroke-miterlimit:10; stroke-width:.3px;"/><line x1="18.75" y1="62.25" x2="12.43" y2="62.25" style="fill:none; stroke:#fff; stroke-miterlimit:10; stroke-width:.3px;"/><line x1="18.75" y1="61.75" x2="12.43" y2="61.75" style="fill:none; stroke:#fff; stroke-miterlimit:10; stroke-width:.3px;"/><line x1="18.75" y1="61.25" x2="12.43" y2="61.25" style="fill:none; stroke:#fff; stroke-miterlimit:10; stroke-width:.3px;"/><line x1="18.75" y1="60.75" x2="12.43" y2="60.75" style="fill:none; stroke:#fff; stroke-miterlimit:10; stroke-width:.3px;"/><line x1="18.75" y1="60" x2="12.43" y2="60" style="fill:none; stroke:#fff; stroke-miterlimit:10; stroke-width:.3px;"/><line x1="18.75" y1="59.5" x2="12.43" y2="59.5" style="fill:none; stroke:#fff; stroke-miterlimit:10; stroke-width:.3px;"/><line x1="18.75" y1="59" x2="12.43" y2="59" style="fill:none; stroke:#fff; stroke-miterlimit:10; stroke-width:.3px;"/><line x1="18.75" y1="58.5" x2="12.43" y2="58.5" style="fill:none; stroke:#fff; stroke-miterlimit:10; stroke-width:.3px;"/><line x1="18.75" y1="58" x2="12.43" y2="58" style="fill:none; stroke:#fff; stroke-miterlimit:10; stroke-width:.3px;"/><line x1="18.75" y1="57.5" x2="12.43" y2="57.5" style="fill:none; stroke:#fff; stroke-miterlimit:10; stroke-width:.3px;"/><line x1="36.79" y1="63.25" x2="33.63" y2="63.25" style="fill:none; stroke:#fff; stroke-miterlimit:10; stroke-width:.3px;"/><line x1="36.79" y1="62.75" x2="33.63" y2="62.75" style="fill:none; stroke:#fff; stroke-miterlimit:10; stroke-width:.3px;"/><line x1="36.79" y1="62.25" x2="33.63" y2="62.25" style="fill:none; stroke:#fff; stroke-miterlimit:10; stroke-width:.3px;"/><line x1="36.79" y1="58.75" x2="33.63" y2="58.75" style="fill:none; stroke:#fff; stroke-miterlimit:10; stroke-width:.3px;"/><line x1="36.79" y1="58.25" x2="33.63" y2="58.25" style="fill:none; stroke:#fff; stroke-miterlimit:10; stroke-width:.3px;"/><line x1="36.79" y1="57.75" x2="33.63" y2="57.75" style="fill:none; stroke:#fff; stroke-miterlimit:10; stroke-width:.3px;"/><rect x="54.89" y="61.94" width="6.49" height="1.33" style="fill:#fff;"/><rect x="54.89" y="57.48" width="6.49" height="1.33" style="fill:#fff;"/><line x1="79.27" y1="62.63" x2="76.11" y2="62.63" style="fill:none; stroke:#fff; stroke-miterlimit:10; stroke-width:.3px;"/><line x1="79.27" y1="62.13" x2="76.11" y2="62.13" style="fill:none; stroke:#fff; stroke-miterlimit:10; stroke-width:.3px;"/><line x1="79.27" y1="58.63" x2="76.11" y2="58.63" style="fill:none; stroke:#fff; stroke-miterlimit:10; stroke-width:.3px;"/><line x1="79.27" y1="58.13" x2="76.11" y2="58.13" style="fill:none; stroke:#fff; stroke-miterlimit:10; stroke-width:.3px;"/><line x1="100.33" y1="62.63" x2="97.17" y2="62.63" style="fill:none; stroke:#fff; stroke-miterlimit:10; stroke-width:.3px;"/><line x1="100.33" y1="62.13" x2="97.17" y2="62.13" style="fill:none; stroke:#fff; stroke-miterlimit:10; stroke-width:.3px;"/><line x1="100.33" y1="58.63" x2="97.17" y2="58.63" style="fill:none; stroke:#fff; stroke-miterlimit:10; stroke-width:.3px;"/><line x1="100.33" y1="58.13" x2="97.17" y2="58.13" style="fill:none; stroke:#fff; stroke-miterlimit:10; stroke-width:.3px;"/><line x1="121.59" y1="62.13" x2="118.43" y2="62.13" style="fill:none; stroke:#fff; stroke-miterlimit:10; stroke-width:.3px;"/><line x1="121.59" y1="58.63" x2="118.43" y2="58.63" style="fill:none; stroke:#fff; stroke-miterlimit:10; stroke-width:.3px;"/><line x1="142.74" y1="62.13" x2="139.57" y2="62.13" style="fill:none; stroke:#fff; stroke-miterlimit:10; stroke-width:.3px;"/><line x1="142.74" y1="58.63" x2="139.57" y2="58.63" style="fill:none; stroke:#fff; stroke-miterlimit:10; stroke-width:.3px;"/><polyline points="263.06 63.67 259.95 60.38 263.06 57.09" style="fill:none; stroke:#f9ed23; stroke-linecap:round; stroke-miterlimit:10; stroke-width:.2px;"/><polyline points="261.14 63.67 258.04 60.38 261.14 57.09" style="fill:none; stroke:#f9ed23; stroke-linecap:round; stroke-miterlimit:10; stroke-width:.2px;"/><path d="m21.6,59.32c.15,0,.29,0,.42.05.21.08.29.24.29.42,0,.32-.25.5-.64.5-.25,0-.48-.05-.59-.25-.09.23-.31.31-.6.31-.45,0-.73-.23-.73-.59s.27-.53.69-.53v.37s-.05,0-.07,0c-.12,0-.23.04-.23.15,0,.16.25.17.39.17.29,0,.36-.07.36-.3h.42c0,.21.04.31.33.31.11,0,.28-.02.28-.14,0-.13-.22-.13-.33-.13v-.34h.03Z" style="fill:#fff;"/><path d="m19.79,60.82h2.05v-.19h.43v.58h-2.48v-.38Z" style="fill:#fff;"/><path d="m24.37,235.2c-.31,1.53-.91,3.4-2.44,3.4s-1.78-1.73-1.78-3.19c0-1.95.21-3.93.56-5.83.3-1.55.91-3.42,2.44-3.42s1.77,1.78,1.77,3.24c0,1.93-.16,3.91-.55,5.79Zm-1.38-7.57c-.68,0-.92,1.55-1.02,2.18-.31,1.89-.53,3.82-.53,5.77,0,.53.02,1.6.62,1.6.68,0,.92-1.53,1.02-2.17.31-1.93.53-3.88.53-5.83,0-.55-.01-1.57-.62-1.57Z" style="fill:#231f20;"/><path d="m26.77,230.23l-.64-.24,1.17-4.06,1.01.38-1.54,3.91Z" style="fill:#231f20;"/><path d="m58.13,227.74h-2.09l-.62,3.04c1.5,0,2.24.87,2.24,2.71,0,2.33-.98,5.12-3.18,5.12-.59,0-.98-.18-1.5-.51l.48-1.44c.36.25.67.44,1.08.44,1.22,0,1.69-1.97,1.69-3.19s-.4-1.84-1.4-1.84c-.28,0-.55.05-.82.15l1.16-5.9h3.1l-.15,1.42Z" style="fill:#231f20;"/><path d="m63.15,235.2c-.31,1.53-.91,3.4-2.44,3.4s-1.78-1.73-1.78-3.19c0-1.95.21-3.93.56-5.83.3-1.55.91-3.42,2.44-3.42s1.77,1.78,1.77,3.24c0,1.93-.16,3.91-.55,5.79Zm-1.38-7.57c-.68,0-.92,1.55-1.02,2.18-.31,1.89-.53,3.82-.53,5.77,0,.53.02,1.6.62,1.6.68,0,.92-1.53,1.02-2.17.31-1.93.53-3.88.53-5.83,0-.55-.01-1.57-.62-1.57Z" style="fill:#231f20;"/><path d="m68.79,235.2c-.31,1.53-.91,3.4-2.44,3.4s-1.78-1.73-1.78-3.19c0-1.95.21-3.93.56-5.83.3-1.55.91-3.42,2.44-3.42s1.77,1.78,1.77,3.24c0,1.93-.16,3.91-.55,5.79Zm-1.38-7.57c-.68,0-.92,1.55-1.02,2.18-.31,1.89-.53,3.82-.53,5.77,0,.53.02,1.6.62,1.6.68,0,.92-1.53,1.02-2.17.31-1.93.53-3.88.53-5.83,0-.55-.01-1.57-.62-1.57Z" style="fill:#231f20;"/><path d="m71.19,230.23l-.64-.24,1.17-4.06,1.01.38-1.54,3.91Z" style="fill:#231f20;"/><path d="m91.6,238.46h-1.26l1.08-10.74h-.96l.13-1.4h2.23l-1.22,12.14Z" style="fill:#231f20;"/><path d="m98.36,235.2c-.31,1.53-.91,3.4-2.44,3.4s-1.78-1.73-1.78-3.19c0-1.95.21-3.93.56-5.83.3-1.55.91-3.42,2.44-3.42s1.77,1.78,1.77,3.24c0,1.93-.16,3.91-.55,5.79Zm-1.38-7.57c-.68,0-.92,1.55-1.02,2.18-.31,1.89-.53,3.82-.53,5.77,0,.53.02,1.6.62,1.6.68,0,.92-1.53,1.02-2.17.31-1.93.53-3.88.53-5.83,0-.55-.01-1.57-.62-1.57Z" style="fill:#231f20;"/><path d="m104,235.2c-.31,1.53-.91,3.4-2.44,3.4s-1.78-1.73-1.78-3.19c0-1.95.21-3.93.56-5.83.3-1.55.91-3.42,2.44-3.42s1.77,1.78,1.77,3.24c0,1.93-.16,3.91-.55,5.79Zm-1.38-7.57c-.68,0-.92,1.55-1.02,2.18-.31,1.89-.53,3.82-.53,5.77,0,.53.02,1.6.62,1.6.68,0,.92-1.53,1.02-2.17.31-1.93.53-3.88.53-5.83,0-.55-.01-1.57-.62-1.57Z" style="fill:#231f20;"/><path d="m109.64,235.2c-.31,1.53-.91,3.4-2.44,3.4s-1.78-1.73-1.78-3.19c0-1.95.21-3.93.56-5.83.3-1.55.91-3.42,2.44-3.42s1.77,1.78,1.77,3.24c0,1.93-.16,3.91-.55,5.79Zm-1.38-7.57c-.68,0-.92,1.55-1.02,2.18-.31,1.89-.53,3.82-.53,5.77,0,.53.02,1.6.62,1.6.68,0,.92-1.53,1.02-2.17.31-1.93.53-3.88.53-5.83,0-.55-.01-1.57-.62-1.57Z" style="fill:#231f20;"/><path d="m112.04,230.23l-.64-.24,1.17-4.06,1.01.38-1.54,3.91Z" style="fill:#231f20;"/><path d="m130.09,238.46h-1.26l1.08-10.74h-.96l.13-1.4h2.23l-1.22,12.14Z" style="fill:#231f20;"/><path d="m137.17,227.74h-2.09l-.62,3.04c1.5,0,2.24.87,2.24,2.71,0,2.33-.98,5.12-3.18,5.12-.59,0-.98-.18-1.5-.51l.48-1.44c.36.25.67.44,1.08.44,1.22,0,1.69-1.97,1.69-3.19s-.4-1.84-1.4-1.84c-.28,0-.55.05-.82.15l1.16-5.9h3.1l-.15,1.42Z" style="fill:#231f20;"/><path d="m142.19,235.2c-.31,1.53-.91,3.4-2.43,3.4s-1.78-1.73-1.78-3.19c0-1.95.21-3.93.56-5.83.3-1.55.91-3.42,2.44-3.42s1.77,1.78,1.77,3.24c0,1.93-.16,3.91-.55,5.79Zm-1.38-7.57c-.68,0-.92,1.55-1.02,2.18-.31,1.89-.54,3.82-.54,5.77,0,.53.01,1.6.62,1.6.68,0,.92-1.53,1.02-2.17.31-1.93.53-3.88.53-5.83,0-.55-.01-1.57-.62-1.57Z" style="fill:#231f20;"/><path d="m147.83,235.2c-.31,1.53-.91,3.4-2.43,3.4s-1.78-1.73-1.78-3.19c0-1.95.21-3.93.56-5.83.3-1.55.91-3.42,2.44-3.42s1.77,1.78,1.77,3.24c0,1.93-.16,3.91-.55,5.79Zm-1.38-7.57c-.68,0-.92,1.55-1.02,2.18-.31,1.89-.54,3.82-.54,5.77,0,.53.01,1.6.62,1.6.68,0,.92-1.53,1.02-2.17.31-1.93.53-3.88.53-5.83,0-.55-.01-1.57-.62-1.57Z" style="fill:#231f20;"/><path d="m150.24,230.23l-.64-.24,1.17-4.06,1.01.38-1.54,3.91Z" style="fill:#231f20;"/><path d="m166.03,230.27c.16-2.06.46-4.1,2.52-4.1,1.31,0,1.87.76,1.87,2.35,0,2.09-1.29,4.7-2.21,6.41-.39.71-.79,1.4-1.13,2.13h2.42l-.13,1.4h-4.29c.56-1.2,1.16-2.38,1.74-3.59.65-1.35,1.35-2.69,1.87-4.15.22-.62.42-1.31.42-1.98,0-.6-.16-1.15-.73-1.15-.65,0-.8.89-.91,1.51-.06.38-.1.78-.15,1.17h-1.29Z" style="fill:#231f20;"/><path d="m175.35,235.2c-.31,1.53-.91,3.4-2.43,3.4s-1.78-1.73-1.78-3.19c0-1.95.21-3.93.56-5.83.3-1.55.91-3.42,2.44-3.42s1.77,1.78,1.77,3.24c0,1.93-.16,3.91-.55,5.79Zm-1.38-7.57c-.68,0-.92,1.55-1.02,2.18-.31,1.89-.54,3.82-.54,5.77,0,.53.01,1.6.62,1.6.68,0,.92-1.53,1.02-2.17.31-1.93.53-3.88.53-5.83,0-.55-.01-1.57-.62-1.57Z" style="fill:#231f20;"/><path d="m180.99,235.2c-.31,1.53-.91,3.4-2.43,3.4s-1.78-1.73-1.78-3.19c0-1.95.21-3.93.56-5.83.3-1.55.91-3.42,2.44-3.42s1.77,1.78,1.77,3.24c0,1.93-.16,3.91-.55,5.79Zm-1.38-7.57c-.68,0-.92,1.55-1.02,2.18-.31,1.89-.54,3.82-.54,5.77,0,.53.01,1.6.62,1.6.68,0,.92-1.53,1.02-2.17.31-1.93.53-3.88.53-5.83,0-.55-.01-1.57-.62-1.57Z" style="fill:#231f20;"/><path d="m186.63,235.2c-.31,1.53-.91,3.4-2.43,3.4s-1.78-1.73-1.78-3.19c0-1.95.21-3.93.56-5.83.3-1.55.91-3.42,2.44-3.42s1.77,1.78,1.77,3.24c0,1.93-.16,3.91-.55,5.79Zm-1.38-7.57c-.68,0-.92,1.55-1.02,2.18-.31,1.89-.54,3.82-.54,5.77,0,.53.01,1.6.62,1.6.68,0,.92-1.53,1.02-2.17.31-1.93.53-3.88.53-5.83,0-.55-.01-1.57-.62-1.57Z" style="fill:#231f20;"/><path d="m189.04,230.23l-.64-.24,1.17-4.06,1.01.38-1.54,3.91Z" style="fill:#231f20;"/><path d="m204.37,230.27c.16-2.06.46-4.1,2.52-4.1,1.31,0,1.87.76,1.87,2.35,0,2.09-1.29,4.7-2.21,6.41-.39.71-.79,1.4-1.13,2.13h2.42l-.13,1.4h-4.29c.56-1.2,1.16-2.38,1.74-3.59.65-1.35,1.35-2.69,1.87-4.15.22-.62.42-1.31.42-1.98,0-.6-.16-1.15-.73-1.15-.65,0-.8.89-.91,1.51-.06.38-.1.78-.15,1.17h-1.29Z" style="fill:#231f20;"/><path d="m214.31,227.74h-2.09l-.62,3.04c1.5,0,2.24.87,2.24,2.71,0,2.33-.98,5.12-3.18,5.12-.59,0-.98-.18-1.5-.51l.48-1.44c.36.25.67.44,1.08.44,1.22,0,1.69-1.97,1.69-3.19s-.4-1.84-1.4-1.84c-.28,0-.55.05-.82.15l1.16-5.9h3.1l-.15,1.42Z" style="fill:#231f20;"/><path d="m219.33,235.2c-.31,1.53-.91,3.4-2.43,3.4s-1.78-1.73-1.78-3.19c0-1.95.21-3.93.56-5.83.3-1.55.91-3.42,2.44-3.42s1.77,1.78,1.77,3.24c0,1.93-.16,3.91-.55,5.79Zm-1.38-7.57c-.68,0-.92,1.55-1.02,2.18-.31,1.89-.54,3.82-.54,5.77,0,.53.01,1.6.62,1.6.68,0,.92-1.53,1.02-2.17.31-1.93.53-3.88.53-5.83,0-.55-.01-1.57-.62-1.57Z" style="fill:#231f20;"/><path d="m224.97,235.2c-.31,1.53-.91,3.4-2.43,3.4s-1.78-1.73-1.78-3.19c0-1.95.21-3.93.56-5.83.3-1.55.91-3.42,2.44-3.42s1.77,1.78,1.77,3.24c0,1.93-.16,3.91-.55,5.79Zm-1.38-7.57c-.68,0-.92,1.55-1.02,2.18-.31,1.89-.54,3.82-.54,5.77,0,.53.01,1.6.62,1.6.68,0,.92-1.53,1.02-2.17.31-1.93.53-3.88.53-5.83,0-.55-.01-1.57-.62-1.57Z" style="fill:#231f20;"/><path d="m227.38,230.23l-.64-.24,1.17-4.06,1.01.38-1.54,3.91Z" style="fill:#231f20;"/><path d="m242.87,229.58l.03-.29c.18-1.73.64-3.11,2.26-3.11,1.17,0,1.78.75,1.78,2.18,0,.76-.07,1.53-.25,2.26-.21.86-.47,1.26-1.16,1.58.73.31.96.86.96,1.78,0,.87-.13,2.04-.4,2.86-.42,1.22-1.28,1.77-2.32,1.77-1.28,0-1.72-.84-1.72-2.31,0-.29.03-.58.06-.87h1.23c-.01.22-.06.42-.06.64,0,.56.18,1.11.71,1.11.21,0,.4-.09.56-.25.45-.46.59-2.09.59-2.79,0-.82-.3-1.31-1-1.31-.12,0-.22.02-.34.04l.13-1.42h.21c.4,0,.74-.04,1.04-.4.39-.47.49-1.6.49-2.26,0-.53-.07-1.18-.62-1.18-.76,0-.91,1.29-.95,1.98h-1.25Z" style="fill:#231f20;"/><path d="m252.03,235.2c-.31,1.53-.91,3.4-2.43,3.4s-1.78-1.73-1.78-3.19c0-1.95.21-3.93.56-5.83.3-1.55.91-3.42,2.44-3.42s1.77,1.78,1.77,3.24c0,1.93-.16,3.91-.55,5.79Zm-1.38-7.57c-.68,0-.92,1.55-1.02,2.18-.31,1.89-.54,3.82-.54,5.77,0,.53.01,1.6.62,1.6.68,0,.92-1.53,1.02-2.17.31-1.93.53-3.88.53-5.83,0-.55-.01-1.57-.62-1.57Z" style="fill:#231f20;"/><path d="m257.67,235.2c-.31,1.53-.91,3.4-2.43,3.4s-1.78-1.73-1.78-3.19c0-1.95.21-3.93.56-5.83.3-1.55.91-3.42,2.44-3.42s1.77,1.78,1.77,3.24c0,1.93-.16,3.91-.55,5.79Zm-1.38-7.57c-.68,0-.92,1.55-1.02,2.18-.31,1.89-.54,3.82-.54,5.77,0,.53.01,1.6.62,1.6.68,0,.92-1.53,1.02-2.17.31-1.93.53-3.88.53-5.83,0-.55-.01-1.57-.62-1.57Z" style="fill:#231f20;"/><path d="m263.31,235.2c-.31,1.53-.91,3.4-2.43,3.4s-1.78-1.73-1.78-3.19c0-1.95.21-3.93.56-5.83.3-1.55.91-3.42,2.44-3.42s1.77,1.78,1.77,3.24c0,1.93-.16,3.91-.55,5.79Zm-1.38-7.57c-.68,0-.92,1.55-1.02,2.18-.31,1.89-.54,3.82-.54,5.77,0,.53.01,1.6.62,1.6.68,0,.92-1.53,1.02-2.17.31-1.93.53-3.88.53-5.83,0-.55-.01-1.57-.62-1.57Z" style="fill:#231f20;"/><path d="m265.72,230.23l-.64-.24,1.17-4.06,1.01.38-1.54,3.91Z" style="fill:#231f20;"/><rect x="22.35" y="189.38" width="240.27" height="13.08" style="fill:#353535;"/><line x1="262.62" y1="195.92" x2="44.86" y2="195.92" style="fill:none; stroke:#fff; stroke-dasharray:0 0 5.4 3.2; stroke-miterlimit:10; stroke-width:.2px;"/><line x1="35.2" y1="201.63" x2="23.76" y2="201.63" style="fill:none; stroke:#fff; stroke-miterlimit:10; stroke-width:.5px;"/><line x1="35.2" y1="200.64" x2="23.76" y2="200.64" style="fill:none; stroke:#fff; stroke-miterlimit:10; stroke-width:.5px;"/><line x1="35.2" y1="199.65" x2="23.76" y2="199.65" style="fill:none; stroke:#fff; stroke-miterlimit:10; stroke-width:.5px;"/><line x1="35.2" y1="198.65" x2="23.76" y2="198.65" style="fill:none; stroke:#fff; stroke-miterlimit:10; stroke-width:.5px;"/><line x1="35.2" y1="197.66" x2="23.76" y2="197.66" style="fill:none; stroke:#fff; stroke-miterlimit:10; stroke-width:.5px;"/><line x1="35.2" y1="196.67" x2="23.76" y2="196.67" style="fill:none; stroke:#fff; stroke-miterlimit:10; stroke-width:.5px;"/><line x1="35.2" y1="195.18" x2="23.76" y2="195.18" style="fill:none; stroke:#fff; stroke-miterlimit:10; stroke-width:.5px;"/><line x1="35.2" y1="194.18" x2="23.76" y2="194.18" style="fill:none; stroke:#fff; stroke-miterlimit:10; stroke-width:.5px;"/><line x1="35.2" y1="193.19" x2="23.76" y2="193.19" style="fill:none; stroke:#fff; stroke-miterlimit:10; stroke-width:.5px;"/><line x1="35.2" y1="192.2" x2="23.76" y2="192.2" style="fill:none; stroke:#fff; stroke-miterlimit:10; stroke-width:.5px;"/><line x1="35.2" y1="191.21" x2="23.76" y2="191.21" style="fill:none; stroke:#fff; stroke-miterlimit:10; stroke-width:.5px;"/><line x1="35.2" y1="190.21" x2="23.76" y2="190.21" style="fill:none; stroke:#fff; stroke-miterlimit:10; stroke-width:.5px;"/><line x1="67.82" y1="201.63" x2="62.1" y2="201.63" style="fill:none; stroke:#fff; stroke-miterlimit:10; stroke-width:.5px;"/><line x1="67.82" y1="200.64" x2="62.1" y2="200.64" style="fill:none; stroke:#fff; stroke-miterlimit:10; stroke-width:.5px;"/><line x1="67.82" y1="199.65" x2="62.1" y2="199.65" style="fill:none; stroke:#fff; stroke-miterlimit:10; stroke-width:.5px;"/><line x1="67.82" y1="192.69" x2="62.1" y2="192.69" style="fill:none; stroke:#fff; stroke-miterlimit:10; stroke-width:.5px;"/><line x1="67.82" y1="191.7" x2="62.1" y2="191.7" style="fill:none; stroke:#fff; stroke-miterlimit:10; stroke-width:.5px;"/><line x1="67.82" y1="190.71" x2="62.1" y2="190.71" style="fill:none; stroke:#fff; stroke-miterlimit:10; stroke-width:.5px;"/><rect x="100.56" y="199.03" width="11.74" height="2.65" style="fill:#fff;"/><rect x="100.56" y="190.17" width="11.74" height="2.65" style="fill:#fff;"/><line x1="144.66" y1="200.39" x2="138.94" y2="200.39" style="fill:none; stroke:#fff; stroke-miterlimit:10; stroke-width:.5px;"/><line x1="144.66" y1="199.4" x2="138.94" y2="199.4" style="fill:none; stroke:#fff; stroke-miterlimit:10; stroke-width:.5px;"/><line x1="144.66" y1="192.45" x2="138.94" y2="192.45" style="fill:none; stroke:#fff; stroke-miterlimit:10; stroke-width:.5px;"/><line x1="144.66" y1="191.45" x2="138.94" y2="191.45" style="fill:none; stroke:#fff; stroke-miterlimit:10; stroke-width:.5px;"/><line x1="182.75" y1="200.39" x2="177.03" y2="200.39" style="fill:none; stroke:#fff; stroke-miterlimit:10; stroke-width:.5px;"/><line x1="182.75" y1="199.4" x2="177.03" y2="199.4" style="fill:none; stroke:#fff; stroke-miterlimit:10; stroke-width:.5px;"/><line x1="182.75" y1="192.45" x2="177.03" y2="192.45" style="fill:none; stroke:#fff; stroke-miterlimit:10; stroke-width:.5px;"/><line x1="182.75" y1="191.45" x2="177.03" y2="191.45" style="fill:none; stroke:#fff; stroke-miterlimit:10; stroke-width:.5px;"/><line x1="221.2" y1="199.4" x2="215.48" y2="199.4" style="fill:none; stroke:#fff; stroke-miterlimit:10; stroke-width:.5px;"/><line x1="221.2" y1="192.45" x2="215.48" y2="192.45" style="fill:none; stroke:#fff; stroke-miterlimit:10; stroke-width:.5px;"/><line x1="259.44" y1="199.4" x2="253.72" y2="199.4" style="fill:none; stroke:#fff; stroke-miterlimit:10; stroke-width:.5px;"/><line x1="259.44" y1="192.45" x2="253.72" y2="192.45" style="fill:none; stroke:#fff; stroke-miterlimit:10; stroke-width:.5px;"/><path d="m40.36,193.81c.27,0,.52.01.76.11.38.15.53.48.53.83,0,.64-.46,1-1.17,1-.46,0-.87-.1-1.07-.5-.16.45-.57.61-1.08.61-.82,0-1.32-.45-1.32-1.17s.49-1.06,1.25-1.06v.74s-.09,0-.13,0c-.22,0-.42.09-.42.3,0,.31.44.33.7.33.53,0,.65-.14.65-.6h.76c0,.41.08.61.59.61.2,0,.51-.04.51-.27,0-.26-.39-.26-.6-.26v-.68h.05Z" style="fill:#fff;"/><path d="m37.08,196.8h3.72v-.38h.78v1.15h-4.5v-.76Z" style="fill:#fff;"/><rect x="10.47" y="189.39" width="11.88" height="13.08" style="fill:#282828;"/><polyline points="11.49 189.38 17.1 195.93 11.49 202.47" style="fill:none; stroke:#f9ed23; stroke-linecap:round; stroke-miterlimit:10; stroke-width:.2px;"/><polyline points="16.28 189.38 21.89 195.93 16.28 202.46" style="fill:none; stroke:#f9ed23; stroke-linecap:round; stroke-miterlimit:10; stroke-width:.2px;"/><polyline points="10.47 193.72 12.78 195.92 10.47 198.13" style="fill:none; stroke:#f9ed23; stroke-linecap:round; stroke-miterlimit:10; stroke-width:.2px;"/><line x1="23.76" y1="221.88" x2="260.99" y2="221.88" style="fill:none; stroke:#231f20; stroke-miterlimit:10; stroke-width:.5px;"/><path d="m260.63,221.88l-.44-.72.02-.02,1.17.47c.41.09.82.18,1.23.27-.41.09-.82.18-1.23.27l-1.17.47h-.02s.44-.74.44-.74Z" style="fill:#231f20;"/><line x1="23.76" y1="221.88" x2="23.76" y2="207.48" style="fill:none; stroke:#231f20; stroke-miterlimit:10; stroke-width:.5px;"/><polygon points="24.78 208.17 23.76 204.38 22.75 208.17 24.78 208.17" style="fill:#231f20;"/><line x1="62.1" y1="221.88" x2="62.1" y2="207.48" style="fill:none; stroke:#231f20; stroke-miterlimit:10; stroke-width:.5px;"/><polygon points="63.12 208.17 62.1 204.38 61.09 208.17 63.12 208.17" style="fill:#231f20;"/><line x1="100.44" y1="221.88" x2="100.44" y2="207.48" style="fill:none; stroke:#231f20; stroke-miterlimit:10; stroke-width:.5px;"/><polygon points="101.46 208.17 100.44 204.38 99.43 208.17 101.46 208.17" style="fill:#231f20;"/><line x1="138.78" y1="221.88" x2="138.78" y2="207.48" style="fill:none; stroke:#231f20; stroke-miterlimit:10; stroke-width:.5px;"/><polygon points="139.8 208.17 138.78 204.38 137.77 208.17 139.8 208.17" style="fill:#231f20;"/><line x1="177.12" y1="221.88" x2="177.12" y2="207.48" style="fill:none; stroke:#231f20; stroke-miterlimit:10; stroke-width:.5px;"/><polygon points="178.14 208.17 177.12 204.38 176.11 208.17 178.14 208.17" style="fill:#231f20;"/><line x1="215.46" y1="221.88" x2="215.46" y2="207.48" style="fill:none; stroke:#231f20; stroke-miterlimit:10; stroke-width:.5px;"/><polygon points="216.48 208.17 215.46 204.38 214.45 208.17 216.48 208.17" style="fill:#231f20;"/><line x1="253.8" y1="221.88" x2="253.8" y2="207.48" style="fill:none; stroke:#231f20; stroke-miterlimit:10; stroke-width:.5px;"/><polygon points="254.82 208.17 253.8 204.38 252.79 208.17 254.82 208.17" style="fill:#231f20;"/></g><g id="Upper_rwy"><line x1="268.28" y1="51.56" x2="268.28" y2="69.2" style="fill:none; stroke:#231f20; stroke-miterlimit:10; stroke-width:.5px;"/><line x1="267.65" y1="60.38" x2="268.92" y2="60.38" style="fill:none; stroke:#231f20; stroke-miterlimit:10; stroke-width:.5px;"/><line x1="267.65" y1="61.64" x2="268.92" y2="61.64" style="fill:none; stroke:#231f20; stroke-miterlimit:10; stroke-width:.5px;"/><line x1="267.65" y1="62.9" x2="268.92" y2="62.9" style="fill:none; stroke:#231f20; stroke-miterlimit:10; stroke-width:.5px;"/><line x1="267.65" y1="64.16" x2="268.92" y2="64.16" style="fill:none; stroke:#231f20; stroke-miterlimit:10; stroke-width:.5px;"/><line x1="267.65" y1="65.42" x2="268.92" y2="65.42" style="fill:none; stroke:#231f20; stroke-miterlimit:10; stroke-width:.5px;"/><line x1="267.65" y1="66.68" x2="268.92" y2="66.68" style="fill:none; stroke:#231f20; stroke-miterlimit:10; stroke-width:.5px;"/><line x1="267.65" y1="67.94" x2="268.92" y2="67.94" style="fill:none; stroke:#231f20; stroke-miterlimit:10; stroke-width:.5px;"/><line x1="267.65" y1="69.2" x2="268.92" y2="69.2" style="fill:none; stroke:#231f20; stroke-miterlimit:10; stroke-width:.5px;"/><line x1="267.65" y1="59.12" x2="268.92" y2="59.12" style="fill:none; stroke:#231f20; stroke-miterlimit:10; stroke-width:.5px;"/><line x1="267.65" y1="57.86" x2="268.92" y2="57.86" style="fill:none; stroke:#231f20; stroke-miterlimit:10; stroke-width:.5px;"/><line x1="267.65" y1="56.6" x2="268.92" y2="56.6" style="fill:none; stroke:#231f20; stroke-miterlimit:10; stroke-width:.5px;"/><line x1="267.65" y1="55.34" x2="268.92" y2="55.34" style="fill:none; stroke:#231f20; stroke-miterlimit:10; stroke-width:.5px;"/><line x1="267.65" y1="54.08" x2="268.92" y2="54.08" style="fill:none; stroke:#231f20; stroke-miterlimit:10; stroke-width:.5px;"/><line x1="267.65" y1="52.82" x2="268.92" y2="52.82" style="fill:none; stroke:#231f20; stroke-miterlimit:10; stroke-width:.5px;"/><line x1="267.65" y1="51.56" x2="268.92" y2="51.56" style="fill:none; stroke:#231f20; stroke-miterlimit:10; stroke-width:.5px;"/><polygon points="0 46.71 268.17 60.38 0 74.05 0 46.71" style="fill:#4f4f4f; opacity:.2;"/><line x1="11.65" y1="47.41" x2="11.65" y2="73.35" style="fill:none; stroke:#231f20; stroke-miterlimit:10; stroke-width:.5px;"/><polygon points="9.9 44.79 11.65 47.72 13.39 44.79 9.9 44.79" style="fill:#231f20;"/><polygon points="9.9 75.97 11.65 73.04 13.39 75.97 9.9 75.97" style="fill:#231f20;"/><rect x="66.16" y="72.38" width="2.17" height="6.95" style="fill:#808285;"/><path d="m20.16,37.41h-1.33l3.59-10.76h-2.56l.13-1.38h4.12l-3.94,12.14Z" style="fill:#231f20;"/><path d="m28.4,34.16c-.29,1.53-.85,3.4-2.3,3.4s-1.68-1.73-1.68-3.19c0-1.95.2-3.93.53-5.83.28-1.55.85-3.42,2.3-3.42s1.67,1.78,1.67,3.24c0,1.93-.15,3.91-.52,5.79Zm-1.3-7.57c-.64,0-.87,1.55-.97,2.18-.29,1.89-.5,3.82-.5,5.77,0,.53.01,1.6.59,1.6.64,0,.87-1.53.97-2.17.29-1.93.5-3.88.5-5.83,0-.55-.01-1.57-.59-1.57Z" style="fill:#231f20;"/><path d="m33.72,34.16c-.29,1.53-.85,3.4-2.3,3.4s-1.68-1.73-1.68-3.19c0-1.95.2-3.93.53-5.83.28-1.55.85-3.42,2.3-3.42s1.67,1.78,1.67,3.24c0,1.93-.15,3.91-.52,5.79Zm-1.3-7.57c-.64,0-.87,1.55-.97,2.18-.29,1.89-.5,3.82-.5,5.77,0,.53.01,1.6.59,1.6.64,0,.87-1.53.97-2.17.29-1.93.5-3.88.5-5.83,0-.55-.01-1.57-.59-1.57Z" style="fill:#231f20;"/><path d="m35.98,29.19l-.6-.24,1.11-4.06.95.38-1.46,3.91Z" style="fill:#231f20;"/><path d="m44.67,37.41h-.78c-.08-1.49-.22-2.99-.22-4.48,0-.49.01-1,.04-1.49-.1.76-.27,1.49-.42,2.24-.27,1.26-.59,2.49-.88,3.73h-.78l-.74-8.14h1.22c.07,1.69.14,3.37.14,5.06,0,.25,0,.53-.03.78.38-1.97.84-3.91,1.3-5.84h.83c.04,1,.07,2,.11,3,.03.53.07,1.06.07,1.58,0,.42-.01.84-.03,1.26.32-1.98.83-3.91,1.27-5.84h1.12l-2.21,8.14Z" style="fill:#231f20;"/><path d="m47.98,37.41h-1.13l.77-8.14h1.13l-.77,8.14Zm.28-9.56c-.38,0-.67-.4-.67-.89,0-.6.42-1.15.88-1.15.41,0,.67.4.67.91,0,.6-.42,1.13-.88,1.13Z" style="fill:#231f20;"/><path d="m52.78,37.41h-1.13l.1-1.04c-.29.67-.6,1.17-1.25,1.17-.99,0-1.16-1.35-1.16-2.37,0-1.66.17-6.03,1.98-6.03.59,0,.83.4,1.02,1.06l.56-6.06h1.15l-1.26,13.27Zm-1.16-6.9c-.59,0-.77.95-.87,1.55-.15.93-.25,1.88-.25,2.82,0,.51.04,1.31.57,1.31s.7-.86.8-1.38c.18-.98.28-2,.28-3.02,0-.47-.04-1.27-.53-1.27Z" style="fill:#231f20;"/><path d="m57.75,34.67c-.07.6-.15,1.11-.39,1.64-.34.78-.97,1.24-1.65,1.24-1.26,0-1.58-1.29-1.58-2.69,0-1.04.11-2.06.31-3.06.27-1.33.83-2.64,2.03-2.64s1.53,1.51,1.53,2.82c0,.56-.04,1.13-.1,1.67h-2.59c-.03.36-.06.71-.06,1.07,0,.56,0,1.53.6,1.53s.78-.96.84-1.58h1.06Zm-.9-2.99c0-.47-.03-1.26-.53-1.26-.67,0-.83,1.49-.92,2.13h1.44c.01-.2.01-.4.01-.6v-.27Z" style="fill:#231f20;"/><path d="m65.33,37.41h-1.13l.1-1.04c-.29.67-.6,1.17-1.25,1.17-.99,0-1.16-1.35-1.16-2.37,0-1.64.18-6.03,1.96-6.03.56,0,.84.42,1.04,1.06l.08-.93h1.13l-.77,8.14Zm-1.16-6.9c-.59,0-.77.95-.87,1.55-.15.93-.25,1.88-.25,2.82,0,.51.04,1.31.57,1.31s.7-.86.8-1.38c.18-.98.28-2,.28-3.02,0-.47-.04-1.27-.53-1.27Z" style="fill:#231f20;"/><path d="m69.16,30.44h-.62l-.66,6.97h-1.13l.66-6.97h-.63l.11-1.17h.63l.21-2.31h1.13l-.21,2.31h.62l-.11,1.17Z" style="fill:#231f20;"/><path d="m75.69,30.66c-.07-.02-.13-.02-.2-.02-.95,0-1.2.75-1.3,1.84l-.48,4.93h-1.13l.77-8.14h1.13l-.1,1.02c.41-.73.73-1.13,1.46-1.2l-.15,1.57Z" style="fill:#231f20;"/><path d="m79.78,34.16c-.18,1.97-.39,3.4-2.21,3.4-1.02,0-1.55-.67-1.55-2,0-.31.03-.6.06-.91l.5-5.37h1.13l-.46,4.88c-.04.38-.07.75-.07,1.13,0,.6.18.84.64.84.6,0,.69-.73.76-1.35.03-.2.06-.42.07-.62l.45-4.88h1.15l-.46,4.88Z" style="fill:#231f20;"/><path d="m82.57,30.22c.35-.66.71-1.07,1.36-1.07.7,0,1.08.55,1.08,1.44,0,.35-.03.69-.06,1.04l-.55,5.79h-1.15l.52-5.44c.01-.22.04-.44.04-.66,0-.47-.17-.86-.56-.86-.7,0-.8.98-.87,1.69l-.5,5.26h-1.13l.77-8.14h1.13l-.08.95Z" style="fill:#231f20;"/><path d="m89.7,37.41h-.78c-.08-1.49-.22-2.99-.22-4.48,0-.49.01-1,.04-1.49-.1.76-.27,1.49-.42,2.24-.27,1.26-.59,2.49-.88,3.73h-.78l-.74-8.14h1.22c.07,1.69.14,3.37.14,5.06,0,.25,0,.53-.03.78.38-1.97.84-3.91,1.3-5.84h.83c.04,1,.07,2,.11,3,.03.53.07,1.06.07,1.58,0,.42-.01.84-.03,1.26.32-1.98.83-3.91,1.27-5.84h1.12l-2.21,8.14Z" style="fill:#231f20;"/><path d="m95.33,37.41h-1.13l.1-1.04c-.29.67-.6,1.17-1.25,1.17-.99,0-1.16-1.35-1.16-2.37,0-1.64.18-6.03,1.96-6.03.56,0,.84.42,1.04,1.06l.08-.93h1.13l-.77,8.14Zm-1.16-6.9c-.59,0-.77.95-.87,1.55-.15.93-.25,1.88-.25,2.82,0,.51.04,1.31.57,1.31s.7-.86.8-1.38c.18-.98.28-2,.28-3.02,0-.47-.04-1.27-.53-1.27Z" style="fill:#231f20;"/><path d="m97.57,40.84h-1.19l1.34-4.08-.94-7.48h1.29l.36,5.68,1.6-5.68h1.16l-3.63,11.56Z" style="fill:#231f20;"/><path d="m106.92,30.44h-.62l-.66,6.97h-1.13l.66-6.97h-.63l.11-1.17h.63l.21-2.31h1.13l-.21,2.31h.62l-.11,1.17Z" style="fill:#231f20;"/><path d="m108.88,30.22c.35-.66.71-1.07,1.36-1.07.7,0,1.08.55,1.08,1.44,0,.35-.03.69-.06,1.04l-.55,5.79h-1.15l.52-5.44c.01-.22.04-.44.04-.66,0-.47-.17-.86-.56-.86-.7,0-.8.98-.87,1.69l-.5,5.26h-1.13l1.26-13.27h1.13l-.57,6.08Z" style="fill:#231f20;"/><path d="m115.11,30.66c-.07-.02-.13-.02-.2-.02-.95,0-1.2.75-1.3,1.84l-.48,4.93h-1.13l.77-8.14h1.13l-.1,1.02c.41-.73.73-1.13,1.46-1.2l-.15,1.57Z" style="fill:#231f20;"/><path d="m118.93,34.67c-.07.6-.15,1.11-.39,1.64-.34.78-.97,1.24-1.65,1.24-1.26,0-1.58-1.29-1.58-2.69,0-1.04.11-2.06.31-3.06.27-1.33.83-2.64,2.03-2.64s1.53,1.51,1.53,2.82c0,.56-.04,1.13-.1,1.67h-2.59c-.03.36-.06.71-.06,1.07,0,.56,0,1.53.6,1.53s.78-.96.84-1.58h1.06Zm-.9-2.99c0-.47-.03-1.26-.53-1.26-.67,0-.83,1.49-.92,2.13h1.44c.01-.2.01-.4.01-.6v-.27Z" style="fill:#231f20;"/><path d="m122.73,30.84c-.24-.24-.52-.4-.83-.4-.42,0-.83.46-.83,1.02,0,1.17,1.57,1.44,1.57,3.31,0,1.53-.81,2.77-2.02,2.77-.41,0-.63-.09-.97-.38l.14-1.46c.27.29.53.49.9.49.55,0,.88-.49.88-1.18,0-1.2-1.6-1.58-1.6-3.33,0-1.44.77-2.58,1.9-2.58.36,0,.67.11.98.35l-.14,1.4Z" style="fill:#231f20;"/><path d="m125.13,30.22c.35-.66.71-1.07,1.36-1.07.7,0,1.08.55,1.08,1.44,0,.35-.03.69-.06,1.04l-.55,5.79h-1.15l.52-5.44c.01-.22.04-.44.04-.66,0-.47-.17-.86-.56-.86-.7,0-.8.98-.87,1.69l-.5,5.26h-1.13l1.26-13.27h1.13l-.57,6.08Z" style="fill:#231f20;"/><path d="m129.75,37.54c-1.29,0-1.6-1.33-1.6-2.75,0-2.04.34-5.64,2.41-5.64,1.25,0,1.61,1.29,1.61,2.69,0,2.04-.32,5.7-2.42,5.7Zm.69-7.03c-.25,0-.41.16-.53.42-.39.76-.55,3.08-.55,4.02,0,.49.07,1.18.56,1.18.25,0,.41-.16.55-.44.39-.76.55-3.06.55-4,0-.51-.07-1.18-.57-1.18Z" style="fill:#231f20;"/><path d="m133.91,37.41h-1.13l1.25-13.27h1.13l-1.25,13.27Z" style="fill:#231f20;"/><path d="m138.7,37.41h-1.13l.1-1.04c-.29.67-.6,1.17-1.25,1.17-.99,0-1.16-1.35-1.16-2.37,0-1.66.17-6.03,1.98-6.03.59,0,.83.4,1.02,1.06l.56-6.06h1.15l-1.26,13.27Zm-1.16-6.9c-.59,0-.77.95-.87,1.55-.15.93-.25,1.88-.25,2.82,0,.51.04,1.31.57,1.31s.7-.86.8-1.38c.18-.98.28-2,.28-3.02,0-.47-.04-1.27-.53-1.27Z" style="fill:#231f20;"/><line x1="17.83" y1="37.08" x2="11.65" y2="44.67" style="fill:#fff;"/><line x1="17.83" y1="37.08" x2="14.45" y2="41.23" style="fill:none; stroke:#231f20; stroke-miterlimit:10; stroke-width:.5px;"/><polygon points="13.95 39.55 11.65 44.67 16.2 41.39 13.95 39.55" style="fill:#231f20;"/><path d="m90.28,98.91c-.04-.78-.13-1.67-.9-1.67-.62,0-.85.62-1.02,1.27-.41,1.57-.67,4.68-.67,6.37,0,.84,0,1.84.85,1.84s1.06-1.07,1.19-1.93c.1-.56.15-1.13.2-1.71h-1.06l.13-1.38h2.26c-.21,2.37-.35,6.55-2.84,6.55-1.72,0-1.97-1.8-1.97-3.62,0-1.57.15-3.11.39-4.64.31-2.06.8-4.19,2.73-4.19,1.29,0,1.76.93,1.95,2.48l-1.22.64Z" style="fill:#231f20;"/><path d="m92.94,108.08h-1.13l1.25-13.27h1.13l-1.25,13.27Z" style="fill:#231f20;"/><path d="m95.34,108.08h-1.13l.77-8.14h1.13l-.77,8.14Zm.28-9.56c-.38,0-.67-.4-.67-.89,0-.6.42-1.15.88-1.15.41,0,.67.4.67.91,0,.6-.42,1.13-.88,1.13Z" style="fill:#231f20;"/><path d="m100.15,108.08h-1.13l.1-1.04c-.29.67-.6,1.17-1.25,1.17-.99,0-1.16-1.35-1.16-2.37,0-1.66.17-6.03,1.98-6.03.59,0,.83.4,1.02,1.06l.56-6.06h1.15l-1.26,13.27Zm-1.16-6.9c-.59,0-.77.95-.87,1.55-.15.93-.25,1.88-.25,2.82,0,.51.04,1.31.57,1.31s.7-.86.8-1.38c.18-.98.28-2,.28-3.02,0-.47-.04-1.27-.53-1.27Z" style="fill:#231f20;"/><path d="m105.12,105.33c-.07.6-.15,1.11-.39,1.64-.34.78-.97,1.24-1.65,1.24-1.26,0-1.58-1.29-1.58-2.69,0-1.04.11-2.06.31-3.06.27-1.33.83-2.64,2.03-2.64s1.53,1.51,1.53,2.82c0,.56-.04,1.13-.1,1.67h-2.59c-.03.36-.06.71-.06,1.07,0,.56,0,1.53.6,1.53s.78-.96.84-1.58h1.06Zm-.9-2.99c0-.47-.03-1.26-.53-1.26-.67,0-.83,1.49-.92,2.13h1.44c.01-.2.01-.4.01-.6v-.27Z" style="fill:#231f20;"/><path d="m108.91,101.51c-.24-.24-.52-.4-.83-.4-.42,0-.83.46-.83,1.02,0,1.17,1.57,1.44,1.57,3.31,0,1.53-.81,2.77-2.02,2.77-.41,0-.63-.09-.97-.38l.14-1.46c.27.29.53.49.9.49.55,0,.88-.49.88-1.18,0-1.2-1.6-1.58-1.6-3.33,0-1.44.77-2.58,1.9-2.58.36,0,.67.11.98.35l-.14,1.4Z" style="fill:#231f20;"/><path d="m110.63,108.08h-1.13l1.25-13.27h1.13l-1.25,13.27Z" style="fill:#231f20;"/><path d="m113.59,108.21c-1.29,0-1.6-1.33-1.6-2.75,0-2.04.34-5.64,2.41-5.64,1.25,0,1.61,1.29,1.61,2.69,0,2.04-.32,5.7-2.42,5.7Zm.69-7.03c-.25,0-.41.16-.53.42-.39.76-.55,3.08-.55,4.02,0,.49.07,1.18.56,1.18.25,0,.41-.16.55-.44.39-.76.55-3.06.55-4,0-.51-.07-1.18-.57-1.18Z" style="fill:#231f20;"/><path d="m118.43,101c.29-.66.6-1.18,1.25-1.18,1.01,0,1.16,1.37,1.16,2.38,0,1.66-.18,6.01-1.98,6.01-.57,0-.83-.38-1.01-1.04l-.42,4.33h-1.15l1.11-11.56h1.13l-.1,1.06Zm.67.18c-.52,0-.7.84-.8,1.37-.18.98-.28,2-.28,3.02,0,.47.06,1.29.55,1.29.57,0,.76-.96.85-1.55.14-.93.25-1.88.25-2.82,0-.51-.04-1.31-.57-1.31Z" style="fill:#231f20;"/><path d="m125.12,105.33c-.07.6-.15,1.11-.39,1.64-.34.78-.97,1.24-1.65,1.24-1.26,0-1.58-1.29-1.58-2.69,0-1.04.11-2.06.31-3.06.27-1.33.83-2.64,2.03-2.64s1.53,1.51,1.53,2.82c0,.56-.04,1.13-.1,1.67h-2.59c-.03.36-.06.71-.06,1.07,0,.56,0,1.53.6,1.53s.78-.96.84-1.58h1.06Zm-.9-2.99c0-.47-.03-1.26-.53-1.26-.67,0-.83,1.49-.92,2.13h1.44c.01-.2.01-.4.01-.6v-.27Z" style="fill:#231f20;"/><path d="m132.7,108.08h-1.13l.1-1.04c-.29.67-.6,1.17-1.25,1.17-.99,0-1.16-1.35-1.16-2.37,0-1.64.18-6.03,1.96-6.03.56,0,.84.42,1.04,1.06l.08-.93h1.13l-.77,8.14Zm-1.16-6.9c-.59,0-.77.95-.87,1.55-.15.93-.25,1.88-.25,2.82,0,.51.04,1.31.57,1.31s.7-.86.8-1.38c.18-.98.28-2,.28-3.02,0-.47-.04-1.27-.53-1.27Z" style="fill:#231f20;"/><path d="m135.8,100.89c.35-.66.71-1.07,1.36-1.07.7,0,1.08.55,1.08,1.44,0,.35-.03.69-.06,1.04l-.55,5.79h-1.15l.52-5.44c.01-.22.04-.44.04-.66,0-.47-.17-.86-.56-.86-.7,0-.8.98-.87,1.69l-.5,5.26h-1.13l.77-8.14h1.13l-.08.95Z" style="fill:#231f20;"/><path d="m141.47,101.11h-.62l-.66,6.97h-1.13l.66-6.97h-.63l.11-1.17h.63l.21-2.31h1.13l-.21,2.31h.62l-.11,1.17Z" style="fill:#231f20;"/><path d="m145.28,105.33c-.07.6-.15,1.11-.39,1.64-.34.78-.97,1.24-1.65,1.24-1.26,0-1.58-1.29-1.58-2.69,0-1.04.11-2.06.31-3.06.27-1.33.83-2.64,2.03-2.64s1.53,1.51,1.53,2.82c0,.56-.04,1.13-.1,1.67h-2.59c-.03.36-.06.71-.06,1.07,0,.56,0,1.53.6,1.53s.78-.96.84-1.58h1.06Zm-.9-2.99c0-.47-.03-1.26-.53-1.26-.67,0-.83,1.49-.92,2.13h1.44c.01-.2.01-.4.01-.6v-.27Z" style="fill:#231f20;"/><path d="m147.9,100.89c.35-.66.71-1.07,1.36-1.07.7,0,1.08.55,1.08,1.44,0,.35-.03.69-.06,1.04l-.55,5.79h-1.15l.52-5.44c.01-.22.04-.44.04-.66,0-.47-.17-.86-.56-.86-.7,0-.8.98-.87,1.69l-.5,5.26h-1.13l.77-8.14h1.13l-.08.95Z" style="fill:#231f20;"/><path d="m152.84,100.89c.35-.66.71-1.07,1.36-1.07.7,0,1.08.55,1.08,1.44,0,.35-.03.69-.06,1.04l-.55,5.79h-1.15l.52-5.44c.01-.22.04-.44.04-.66,0-.47-.17-.86-.56-.86-.7,0-.8.98-.87,1.69l-.5,5.26h-1.13l.77-8.14h1.13l-.08.95Z" style="fill:#231f20;"/><path d="m159.48,108.08h-1.13l.1-1.04c-.29.67-.6,1.17-1.25,1.17-.99,0-1.16-1.35-1.16-2.37,0-1.64.18-6.03,1.96-6.03.56,0,.84.42,1.04,1.06l.08-.93h1.13l-.77,8.14Zm-1.16-6.9c-.59,0-.77.95-.87,1.55-.15.93-.25,1.88-.25,2.82,0,.51.04,1.31.57,1.31s.7-.86.8-1.38c.18-.98.28-2,.28-3.02,0-.47-.04-1.27-.53-1.27Z" style="fill:#231f20;"/><line x1="86.87" y1="95.54" x2="70.67" y2="81" style="fill:#fff;"/><line x1="86.87" y1="95.54" x2="73.96" y2="83.96" style="fill:none; stroke:#231f20; stroke-miterlimit:10; stroke-width:.5px;"/><polygon points="75.67 83.54 70.67 81 73.73 85.7 75.67 83.54" style="fill:#231f20;"/><path d="m215.7,108.08h-3.26l1.13-12.14h1.25l-1.01,10.76h2.02l-.12,1.38Z" style="fill:#231f20;"/><path d="m218.08,108.21c-1.29,0-1.6-1.33-1.6-2.75,0-2.04.34-5.64,2.41-5.64,1.25,0,1.61,1.29,1.61,2.69,0,2.04-.32,5.7-2.42,5.7Zm.69-7.03c-.25,0-.41.16-.53.42-.39.76-.55,3.08-.55,4.02,0,.49.07,1.18.56,1.18.25,0,.41-.16.55-.44.39-.76.55-3.06.55-4,0-.51-.07-1.18-.57-1.18Z" style="fill:#231f20;"/><path d="m224.22,101.64c-.11-.27-.29-.38-.53-.38-1.11,0-1.25,2.8-1.25,3.82,0,.67.03,1.71.73,1.71.22,0,.42-.13.6-.31l-.14,1.4c-.34.24-.56.33-.95.33-1.19,0-1.51-1.37-1.51-2.68,0-1.18.15-2.55.45-3.66.31-1.17.87-2.06,1.89-2.06.35,0,.56.07.87.29l-.15,1.53Z" style="fill:#231f20;"/><path d="m228.1,108.08h-1.13l.1-1.04c-.29.67-.6,1.17-1.25,1.17-1,0-1.16-1.35-1.16-2.37,0-1.64.18-6.03,1.96-6.03.56,0,.84.42,1.04,1.06l.08-.93h1.13l-.77,8.14Zm-1.16-6.9c-.59,0-.77.95-.87,1.55-.15.93-.25,1.88-.25,2.82,0,.51.04,1.31.57,1.31s.7-.86.8-1.38c.18-.98.28-2,.28-3.02,0-.47-.04-1.27-.53-1.27Z" style="fill:#231f20;"/><path d="m230.52,108.08h-1.13l1.25-13.27h1.13l-1.25,13.27Z" style="fill:#231f20;"/><path d="m232.93,108.08h-1.13l.77-8.14h1.13l-.77,8.14Zm.28-9.56c-.38,0-.67-.4-.67-.89,0-.6.42-1.15.88-1.15.41,0,.67.4.67.91,0,.6-.42,1.13-.88,1.13Z" style="fill:#231f20;"/><path d="m235.58,106.72h1.95l-.13,1.37h-3.64l2.77-6.81h-1.96l.13-1.33h3.57l-2.69,6.77Z" style="fill:#231f20;"/><path d="m242.03,105.33c-.07.6-.15,1.11-.39,1.64-.34.78-.97,1.24-1.65,1.24-1.26,0-1.58-1.29-1.58-2.69,0-1.04.11-2.06.31-3.06.27-1.33.83-2.64,2.03-2.64s1.53,1.51,1.53,2.82c0,.56-.04,1.13-.1,1.67h-2.59c-.03.36-.06.71-.06,1.07,0,.56,0,1.53.6,1.53s.78-.96.84-1.58h1.06Zm-.9-2.99c0-.47-.03-1.26-.53-1.26-.67,0-.83,1.49-.93,2.13h1.44c.01-.2.01-.4.01-.6v-.27Z" style="fill:#231f20;"/><path d="m245.94,101.33c-.07-.02-.13-.02-.2-.02-.95,0-1.2.75-1.3,1.84l-.48,4.93h-1.13l.77-8.14h1.13l-.1,1.02c.41-.73.73-1.13,1.46-1.2l-.15,1.57Z" style="fill:#231f20;"/><line x1="245.84" y1="96.88" x2="267.65" y2="69.56" style="fill:#fff;"/><line x1="245.84" y1="96.88" x2="264.88" y2="73.02" style="fill:none; stroke:#231f20; stroke-miterlimit:10; stroke-width:.5px;"/><polygon points="265.4 74.7 267.65 69.56 263.13 72.89 265.4 74.7" style="fill:#231f20;"/><path d="m156.52,79.72l.03-.29c.17-1.73.6-3.11,2.13-3.11,1.11,0,1.68.75,1.68,2.18,0,.76-.07,1.53-.24,2.26-.2.86-.45,1.26-1.09,1.58.69.31.91.86.91,1.78,0,.87-.13,2.04-.38,2.86-.39,1.22-1.21,1.77-2.19,1.77-1.21,0-1.62-.84-1.62-2.31,0-.29.03-.58.06-.87h1.16c-.01.22-.06.42-.06.64,0,.56.17,1.11.67,1.11.2,0,.38-.09.53-.25.42-.46.56-2.09.56-2.79,0-.82-.28-1.31-.94-1.31-.11,0-.21.02-.32.04l.13-1.42h.2c.38,0,.7-.04.98-.4.36-.47.46-1.6.46-2.26,0-.53-.07-1.18-.59-1.18-.71,0-.85,1.29-.9,1.98h-1.18Z" style="fill:#231f20;"/><path d="m164.88,72.51c.67,0,1.19.67,1.19,1.55s-.52,1.55-1.19,1.55-1.19-.67-1.19-1.55.52-1.55,1.19-1.55Zm0,2.28c.32,0,.56-.31.56-.73s-.24-.73-.56-.73-.56.31-.56.73.24.73.56.73Z" style="fill:#231f20;"/><path d="m170.78,81.63h-.62l-.66,6.97h-1.13l.66-6.97h-.63l.11-1.17h.63l.21-2.31h1.13l-.21,2.31h.62l-.11,1.17Z" style="fill:#231f20;"/><path d="m172.57,88.73c-1.29,0-1.6-1.33-1.6-2.75,0-2.04.34-5.64,2.41-5.64,1.25,0,1.61,1.29,1.61,2.69,0,2.04-.32,5.7-2.42,5.7Zm.69-7.03c-.25,0-.41.16-.53.42-.39.76-.55,3.08-.55,4.02,0,.49.07,1.18.56,1.18.25,0,.41-.16.55-.44.39-.76.55-3.06.55-4,0-.51-.07-1.18-.57-1.18Z" style="fill:#231f20;"/><path d="m183.22,76.46c-.34.8-.71,1.57-1.08,2.35-.43.93-.83,1.89-1.2,2.88.32-.33.63-.55,1.05-.55.95,0,1.29,1.15,1.29,2.2,0,1.11-.07,2.26-.32,3.31-.32,1.33-.98,2.09-2.07,2.09-1.26,0-1.68-1.06-1.68-2.55,0-3.88,1.2-6.54,2.7-9.74h1.32Zm-1.79,6.17c-.31,0-.48.2-.62.55-.27.69-.39,2.04-.39,2.82,0,.51.06,1.33.59,1.33.92,0,1.05-2.6,1.05-3.46,0-.62-.03-1.24-.63-1.24Z" style="fill:#231f20;"/><path d="m188.22,72.51c.67,0,1.19.67,1.19,1.55s-.52,1.55-1.19,1.55-1.19-.67-1.19-1.55.52-1.55,1.19-1.55Zm0,2.28c.32,0,.56-.31.56-.73s-.24-.73-.56-.73-.56.31-.56.73.24.73.56.73Z" style="fill:#231f20;"/><path d="m195.57,88.6h-.79c-.08-1.49-.22-2.99-.22-4.48,0-.49.01-1,.04-1.49-.1.76-.27,1.49-.42,2.24-.27,1.26-.59,2.49-.88,3.73h-.79l-.74-8.14h1.22c.07,1.69.14,3.37.14,5.06,0,.25,0,.53-.03.78.38-1.97.84-3.91,1.3-5.84h.83c.04,1,.07,2,.11,3,.03.53.07,1.06.07,1.58,0,.42-.01.84-.03,1.26.32-1.98.83-3.91,1.27-5.84h1.12l-2.21,8.14Z" style="fill:#231f20;"/><path d="m198.89,88.6h-1.13l.77-8.14h1.13l-.77,8.14Zm.28-9.56c-.38,0-.67-.4-.67-.89,0-.6.42-1.15.88-1.15.41,0,.67.4.67.91,0,.6-.42,1.13-.88,1.13Z" style="fill:#231f20;"/><path d="m203.69,88.6h-1.13l.1-1.04c-.29.67-.6,1.17-1.25,1.17-.99,0-1.16-1.35-1.16-2.37,0-1.66.17-6.03,1.97-6.03.59,0,.83.4,1.02,1.06l.56-6.06h1.15l-1.26,13.27Zm-1.16-6.9c-.59,0-.77.95-.87,1.55-.15.93-.25,1.88-.25,2.82,0,.51.04,1.31.57,1.31s.7-.86.8-1.38c.18-.98.28-2,.28-3.02,0-.47-.04-1.27-.53-1.27Z" style="fill:#231f20;"/><path d="m207.51,81.63h-.62l-.66,6.97h-1.13l.66-6.97h-.63l.11-1.17h.63l.21-2.31h1.13l-.21,2.31h.62l-.11,1.17Z" style="fill:#231f20;"/><path d="m209.47,81.41c.35-.66.71-1.07,1.36-1.07.7,0,1.08.55,1.08,1.44,0,.35-.03.69-.06,1.04l-.55,5.79h-1.15l.52-5.44c.01-.22.04-.44.04-.66,0-.47-.17-.86-.56-.86-.7,0-.8.98-.87,1.69l-.5,5.26h-1.13l1.26-13.27h1.13l-.57,6.08Z" style="fill:#231f20;"/><line x1="155.26" y1="77.4" x2="130.67" y2="67.34" style="fill:#fff;"/><line x1="155.26" y1="77.4" x2="134.77" y2="69.01" style="fill:none; stroke:#231f20; stroke-miterlimit:10; stroke-width:.5px;"/><polygon points="136.23 68.04 130.67 67.34 135.13 70.73 136.23 68.04" style="fill:#231f20;"/><path d="m125.13,162.48l-.12-2.37h-1.94l-.59,2.37h-1.28l3.34-12.14h1.02l.88,12.14h-1.31Zm-.19-3.62c-.07-1.6-.15-3.2-.15-4.81,0-.46,0-.89.02-1.35-.12.56-.22,1.13-.34,1.69-.31,1.51-.7,2.99-1.08,4.46h1.56Z" style="fill:#231f20;"/><path d="m128.33,162.48h-1.2l.82-8.14h1.2l-.82,8.14Zm.3-9.56c-.4,0-.71-.4-.71-.89,0-.6.45-1.15.94-1.15.43,0,.71.4.71.91,0,.6-.45,1.13-.94,1.13Z" style="fill:#231f20;"/><path d="m131.61,155.34c.36-.64.77-1.13,1.44-1.13s.98.36,1.11,1.13c.37-.71.77-1.13,1.48-1.13s1.25.47,1.25,1.4c0,.13,0,.25-.01.38l-.65,6.48h-1.2l.53-5.35c.03-.25.04-.51.04-.76,0-.47-.13-.78-.55-.78-.76,0-.83.82-.91,1.55l-.53,5.35h-1.25l.53-5.35c.03-.27.04-.53.04-.8,0-.47-.21-.75-.59-.75-.74,0-.83.84-.91,1.55l-.55,5.35h-1.2l.82-8.14h1.2l-.1,1Z" style="fill:#231f20;"/><path d="m138.8,162.48h-1.2l.82-8.14h1.2l-.82,8.14Zm.3-9.56c-.4,0-.71-.4-.71-.89,0-.6.45-1.15.94-1.15.43,0,.71.4.71.91,0,.6-.45,1.13-.94,1.13Z" style="fill:#231f20;"/><path d="m142.09,155.29c.37-.66.76-1.07,1.44-1.07.74,0,1.14.55,1.14,1.44,0,.35-.03.69-.06,1.04l-.58,5.79h-1.22l.55-5.44c.01-.22.04-.44.04-.66,0-.47-.18-.86-.59-.86-.74,0-.85.98-.92,1.69l-.54,5.26h-1.2l.82-8.14h1.2l-.09.95Z" style="fill:#231f20;"/><path d="m149.12,162.73c-.06.64-.12,1.27-.34,1.86-.37.95-1.16,1.31-1.97,1.31-1.05,0-1.68-.66-1.68-1.98,0-.2.01-.38.04-.58h1.17c-.01.13-.03.25-.03.38,0,.53.22.93.68.93.74,0,.83-.87.89-1.58l.15-1.58c-.28.66-.65,1.13-1.29,1.13-1.04,0-1.28-1.29-1.28-2.33,0-1.35.15-2.71.45-4.02.24-1,.7-2.04,1.66-2.04.62,0,.88.46,1.08,1.11l.09-.98h1.22l-.85,8.39Zm-1.28-7.15c-.96,0-1.11,3.53-1.11,4.37,0,.53.06,1.31.62,1.31.36,0,.54-.29.65-.66.28-.82.45-2.69.45-3.6,0-.49-.07-1.42-.61-1.42Z" style="fill:#231f20;"/><path d="m155.9,155.4c.31-.66.64-1.18,1.32-1.18,1.07,0,1.23,1.37,1.23,2.38,0,1.66-.19,6.01-2.09,6.01-.61,0-.88-.38-1.07-1.04l-.45,4.33h-1.22l1.17-11.56h1.2l-.1,1.06Zm.71.18c-.55,0-.74.84-.85,1.37-.19.98-.3,2-.3,3.02,0,.47.06,1.29.58,1.29.61,0,.8-.96.91-1.55.15-.93.27-1.88.27-2.82,0-.51-.04-1.31-.61-1.31Z" style="fill:#231f20;"/><path d="m160.86,162.6c-1.37,0-1.69-1.33-1.69-2.75,0-2.04.36-5.64,2.55-5.64,1.32,0,1.71,1.29,1.71,2.69,0,2.04-.34,5.7-2.57,5.7Zm.73-7.03c-.27,0-.43.16-.56.42-.42.76-.58,3.08-.58,4.02,0,.49.07,1.18.59,1.18.27,0,.43-.16.58-.44.42-.76.58-3.06.58-4,0-.51-.07-1.18-.61-1.18Z" style="fill:#231f20;"/><path d="m165.26,162.48h-1.2l.82-8.14h1.2l-.82,8.14Zm.3-9.56c-.4,0-.71-.4-.71-.89,0-.6.45-1.15.93-1.15.43,0,.71.4.71.91,0,.6-.45,1.13-.94,1.13Z" style="fill:#231f20;"/><path d="m168.56,155.29c.37-.66.76-1.07,1.44-1.07.74,0,1.14.55,1.14,1.44,0,.35-.03.69-.06,1.04l-.58,5.79h-1.22l.55-5.44c.01-.22.04-.44.04-.66,0-.47-.18-.86-.59-.86-.74,0-.85.98-.92,1.69l-.54,5.26h-1.2l.82-8.14h1.2l-.09.95Z" style="fill:#231f20;"/><path d="m174.57,155.5h-.65l-.7,6.97h-1.2l.7-6.97h-.67l.12-1.17h.67l.22-2.31h1.2l-.22,2.31h.65l-.12,1.17Z" style="fill:#231f20;"/><line x1="121.59" y1="165" x2="106.43" y2="189.38" style="fill:#fff;"/><line x1="121.59" y1="165" x2="108.77" y2="185.62" style="fill:none; stroke:#231f20; stroke-miterlimit:10; stroke-width:.5px;"/><polygon points="108.06 184.01 106.43 189.38 110.52 185.55 108.06 184.01" style="fill:#231f20;"/><path d="m47.56,139.86h-1.51l-1.07,10.7h-1.29l1.08-10.7h-1.51l.15-1.44h4.31l-.15,1.44Z" style="fill:#231f20;"/><path d="m48.55,150.69c-1.37,0-1.69-1.33-1.69-2.75,0-2.04.36-5.64,2.55-5.64,1.32,0,1.71,1.29,1.71,2.69,0,2.04-.34,5.7-2.57,5.7Zm.73-7.03c-.27,0-.43.16-.56.42-.42.76-.58,3.08-.58,4.02,0,.49.07,1.18.59,1.18.27,0,.43-.16.58-.44.42-.76.58-3.06.58-4,0-.51-.07-1.18-.61-1.18Z" style="fill:#231f20;"/><path d="m55.98,147.3c-.19,1.97-.42,3.4-2.35,3.4-1.08,0-1.65-.67-1.65-2,0-.31.03-.6.06-.91l.53-5.37h1.2l-.49,4.88c-.04.38-.07.75-.07,1.13,0,.6.19.84.68.84.64,0,.73-.73.8-1.35.03-.2.06-.42.07-.62l.48-4.88h1.22l-.49,4.88Z" style="fill:#231f20;"/><path d="m60.33,144.12c-.12-.27-.31-.38-.56-.38-1.17,0-1.32,2.8-1.32,3.82,0,.67.03,1.71.77,1.71.24,0,.45-.13.64-.31l-.15,1.4c-.36.24-.59.33-1.01.33-1.26,0-1.6-1.37-1.6-2.68,0-1.18.16-2.55.48-3.66.33-1.17.92-2.06,2-2.06.37,0,.59.07.92.29l-.16,1.53Z" style="fill:#231f20;"/><path d="m62.49,143.37c.37-.66.76-1.07,1.44-1.07.74,0,1.14.55,1.14,1.44,0,.35-.03.69-.06,1.04l-.58,5.79h-1.22l.55-5.44c.01-.22.04-.44.04-.66,0-.47-.18-.86-.59-.86-.74,0-.85.98-.92,1.69l-.53,5.26h-1.2l1.34-13.27h1.2l-.61,6.08Z" style="fill:#231f20;"/><path d="m69.53,150.56h-1.2l.1-1.04c-.31.67-.64,1.17-1.32,1.17-1.05,0-1.23-1.35-1.23-2.37,0-1.66.18-6.03,2.09-6.03.62,0,.88.4,1.08,1.06l.59-6.06h1.22l-1.34,13.27Zm-1.23-6.9c-.62,0-.82.95-.92,1.55-.16.93-.27,1.88-.27,2.82,0,.51.04,1.31.61,1.31s.74-.86.85-1.38c.19-.98.3-2,.3-3.02,0-.47-.04-1.27-.56-1.27Z" style="fill:#231f20;"/><path d="m72.66,150.69c-1.37,0-1.69-1.33-1.69-2.75,0-2.04.36-5.64,2.55-5.64,1.32,0,1.71,1.29,1.71,2.69,0,2.04-.34,5.7-2.57,5.7Zm.73-7.03c-.27,0-.43.16-.56.42-.42.76-.58,3.08-.58,4.02,0,.49.07,1.18.59,1.18.27,0,.43-.16.58-.44.42-.76.58-3.06.58-4,0-.51-.07-1.18-.61-1.18Z" style="fill:#231f20;"/><path d="m80.01,150.56h-.83c-.09-1.49-.24-2.99-.24-4.48,0-.49.02-1,.04-1.49-.1.76-.28,1.49-.45,2.24-.28,1.26-.62,2.49-.94,3.73h-.83l-.79-8.14h1.29c.07,1.69.15,3.37.15,5.06,0,.25,0,.53-.03.78.4-1.97.89-3.91,1.38-5.84h.88c.04,1,.07,2,.12,3,.03.53.07,1.06.07,1.58,0,.42-.01.84-.03,1.26.34-1.98.88-3.91,1.35-5.84h1.19l-2.35,8.14Z" style="fill:#231f20;"/><path d="m84.26,143.37c.37-.66.76-1.07,1.44-1.07.74,0,1.14.55,1.14,1.44,0,.35-.03.69-.06,1.04l-.58,5.79h-1.22l.55-5.44c.01-.22.04-.44.04-.66,0-.47-.18-.86-.59-.86-.74,0-.85.98-.92,1.69l-.53,5.26h-1.2l.82-8.14h1.2l-.09.95Z" style="fill:#231f20;"/><path d="m56.99,166h2.06l-.13,1.37h-3.86l2.94-6.81h-2.08l.13-1.33h3.79l-2.85,6.77Z" style="fill:#231f20;"/><path d="m61.7,167.49c-1.37,0-1.69-1.33-1.69-2.75,0-2.04.36-5.64,2.55-5.64,1.32,0,1.71,1.29,1.71,2.69,0,2.04-.34,5.7-2.57,5.7Zm.73-7.03c-.27,0-.43.16-.56.42-.42.76-.58,3.08-.58,4.02,0,.49.07,1.18.59,1.18.27,0,.43-.16.58-.44.42-.76.58-3.06.58-4,0-.51-.07-1.18-.61-1.18Z" style="fill:#231f20;"/><path d="m66.84,160.17c.37-.66.76-1.07,1.44-1.07.74,0,1.14.55,1.14,1.44,0,.35-.03.69-.06,1.04l-.58,5.79h-1.22l.55-5.44c.01-.22.04-.44.04-.66,0-.47-.18-.86-.59-.86-.74,0-.85.98-.92,1.69l-.53,5.26h-1.2l.82-8.14h1.2l-.09.95Z" style="fill:#231f20;"/><path d="m74.06,164.61c-.07.6-.16,1.11-.42,1.64-.36.78-1.02,1.24-1.75,1.24-1.34,0-1.68-1.29-1.68-2.69,0-1.04.12-2.06.33-3.06.28-1.33.88-2.64,2.15-2.64s1.62,1.51,1.62,2.82c0,.56-.04,1.13-.1,1.67h-2.75c-.03.36-.06.71-.06,1.07,0,.56,0,1.53.64,1.53s.83-.96.89-1.58h1.13Zm-.95-2.99c0-.47-.03-1.26-.56-1.26-.71,0-.88,1.49-.98,2.13h1.53c.02-.2.02-.4.02-.6v-.27Z" style="fill:#231f20;"/><line x1="64.96" y1="170.31" x2="64.96" y2="184.95" style="fill:none; stroke:#231f20; stroke-miterlimit:10; stroke-width:.5px;"/><polygon points="63.51 183.96 64.96 189.38 66.42 183.96 63.51 183.96" style="fill:#231f20;"/><line x1="62.62" y1="75.86" x2="15.19" y2="75.86" style="fill:none; stroke:#231f20; stroke-miterlimit:10; stroke-width:.5px;"/><polygon points="61.83 74.7 66.16 75.86 61.83 77.02 61.83 74.7" style="fill:#231f20;"/><polygon points="15.98 74.7 11.65 75.86 15.98 77.02 15.98 74.7" style="fill:#231f20;"/><path d="m20.19,90.74h-1.33l3.59-10.76h-2.56l.13-1.38h4.12l-3.94,12.14Z" style="fill:#231f20;"/><path d="m28.42,80.02h-1.98l-.59,3.04c1.41,0,2.12.87,2.12,2.71,0,2.33-.92,5.12-3,5.12-.56,0-.92-.18-1.42-.51l.45-1.44c.34.25.63.44,1.02.44,1.15,0,1.6-1.97,1.6-3.19s-.38-1.84-1.32-1.84c-.27,0-.52.05-.77.15l1.09-5.9h2.93l-.14,1.42Z" style="fill:#231f20;"/><path d="m33.15,87.49c-.29,1.53-.85,3.4-2.3,3.4s-1.68-1.73-1.68-3.19c0-1.95.2-3.93.53-5.83.28-1.55.85-3.42,2.3-3.42s1.67,1.78,1.67,3.24c0,1.93-.15,3.91-.52,5.79Zm-1.3-7.57c-.64,0-.87,1.55-.97,2.18-.29,1.89-.5,3.82-.5,5.77,0,.53.01,1.6.59,1.6.64,0,.87-1.53.97-2.17.29-1.93.5-3.88.5-5.83,0-.55-.01-1.57-.59-1.57Z" style="fill:#231f20;"/><path d="m36.75,86.79h-2.17l.13-1.42h2.17l-.13,1.42Z" style="fill:#231f20;"/><path d="m40.12,90.74h-1.19l1.02-10.74h-.91l.13-1.4h2.1l-1.15,12.14Z" style="fill:#231f20;"/><path d="m42.77,82.55c.15-2.06.43-4.1,2.38-4.1,1.23,0,1.77.76,1.77,2.35,0,2.09-1.22,4.7-2.09,6.41-.36.71-.74,1.4-1.06,2.13h2.28l-.13,1.4h-4.05c.53-1.2,1.09-2.38,1.64-3.59.62-1.35,1.27-2.69,1.76-4.15.21-.62.39-1.31.39-1.98,0-.6-.15-1.15-.69-1.15-.62,0-.76.89-.85,1.51-.06.38-.1.78-.14,1.17h-1.22Z" style="fill:#231f20;"/><path d="m52.15,80.02h-1.98l-.59,3.04c1.41,0,2.12.87,2.12,2.71,0,2.33-.92,5.12-3,5.12-.56,0-.92-.18-1.42-.51l.45-1.44c.34.25.63.44,1.02.44,1.15,0,1.6-1.97,1.6-3.19s-.38-1.84-1.32-1.84c-.27,0-.52.05-.77.15l1.09-5.9h2.93l-.14,1.42Z" style="fill:#231f20;"/><path d="m56.88,87.49c-.29,1.53-.85,3.4-2.3,3.4s-1.68-1.73-1.68-3.19c0-1.95.2-3.93.53-5.83.28-1.55.85-3.42,2.3-3.42s1.67,1.78,1.67,3.24c0,1.93-.15,3.91-.52,5.79Zm-1.3-7.57c-.64,0-.87,1.55-.97,2.18-.29,1.89-.5,3.82-.5,5.77,0,.53.01,1.6.59,1.6.64,0,.87-1.53.97-2.17.29-1.93.5-3.88.5-5.83,0-.55-.01-1.57-.59-1.57Z" style="fill:#231f20;"/><path d="m59.15,82.52l-.6-.24,1.11-4.06.95.38-1.46,3.91Z" style="fill:#231f20;"/></g></svg>